<svg xmlns="http://www.w3.org/2000/svg" width="900" height="290" style="font-family: -apple-system, BlinkMacSystemFont, 'Segoe UI', Helvetica, Arial, sans-serif;">
  <rect width="100%" height="100%" fill="#0d1117"/>
  <g>
    <line x1="40" y1="220.00" x2="860" y2="220.00" stroke="#30363d"/><text x="32" y="224.00" font-size="10" fill="#c9d1d9" text-anchor="end">0</text><line x1="40" y1="175.00" x2="860" y2="175.00" stroke="#30363d"/><text x="32" y="179.00" font-size="10" fill="#c9d1d9" text-anchor="end">25k</text><line x1="40" y1="130.00" x2="860" y2="130.00" stroke="#30363d"/><text x="32" y="134.00" font-size="10" fill="#c9d1d9" text-anchor="end">50k</text><line x1="40" y1="85.00" x2="860" y2="85.00" stroke="#30363d"/><text x="32" y="89.00" font-size="10" fill="#c9d1d9" text-anchor="end">75k</text><line x1="40" y1="40.00" x2="860" y2="40.00" stroke="#30363d"/><text x="32" y="44.00" font-size="10" fill="#c9d1d9" text-anchor="end">100k</text>
    <line x1="40.00" y1="40" x2="40.00" y2="220" stroke="#30363d" opacity="0.5"/><line x1="121.67" y1="40" x2="121.67" y2="220" stroke="#30363d" opacity="0.5"/><line x1="203.35" y1="40" x2="203.35" y2="220" stroke="#30363d" opacity="0.5"/><line x1="285.02" y1="40" x2="285.02" y2="220" stroke="#30363d" opacity="0.5"/><line x1="366.69" y1="40" x2="366.69" y2="220" stroke="#30363d" opacity="0.5"/><line x1="448.37" y1="40" x2="448.37" y2="220" stroke="#30363d" opacity="0.5"/><line x1="530.04" y1="40" x2="530.04" y2="220" stroke="#30363d" opacity="0.5"/><line x1="611.71" y1="40" x2="611.71" y2="220" stroke="#30363d" opacity="0.5"/><line x1="693.39" y1="40" x2="693.39" y2="220" stroke="#30363d" opacity="0.5"/><line x1="775.06" y1="40" x2="775.06" y2="220" stroke="#30363d" opacity="0.5"/><line x1="856.73" y1="40" x2="856.73" y2="220" stroke="#30363d" opacity="0.5"/>
    <line x1="40" y1="220" x2="860" y2="220" stroke="#30363d"/>
    <line x1="40" y1="40"   x2="40"   y2="220" stroke="#30363d"/>
    <path d="M 40.00 219.82 L 41.63 219.52 L 43.27 219.36 L 44.90 219.31 L 46.53 219.21 L 48.17 219.21 L 49.80 219.21 L 51.43 219.21 L 53.07 219.10 L 54.70 218.97 L 56.33 218.93 L 57.97 218.85 L 59.60 218.82 L 61.24 218.77 L 62.87 218.77 L 64.50 219.05 L 66.14 219.04 L 67.77 219.04 L 69.40 218.98 L 71.04 218.91 L 72.67 218.82 L 74.30 218.79 L 75.94 218.68 L 77.57 218.67 L 79.20 218.60 L 80.84 218.55 L 82.47 218.45 L 84.10 218.42 L 85.74 218.38 L 87.37 218.33 L 89.00 218.24 L 90.64 218.09 L 92.27 217.93 L 93.90 217.69 L 95.54 217.78 L 97.17 217.56 L 98.80 217.40 L 100.44 215.79 L 102.07 215.77 L 103.71 214.66 L 105.34 214.14 L 106.97 213.99 L 108.61 213.92 L 110.24 213.77 L 111.87 213.71 L 113.51 213.57 L 115.14 213.05 L 116.77 212.85 L 118.41 212.71 L 120.04 212.52 L 121.67 212.19 L 123.31 212.03 L 124.94 211.72 L 126.57 211.54 L 128.21 211.47 L 129.84 211.13 L 131.47 210.98 L 133.11 210.94 L 134.74 210.85 L 136.37 210.69 L 138.01 210.62 L 139.64 210.56 L 141.27 210.40 L 142.91 210.34 L 144.54 209.55 L 146.18 209.49 L 147.81 147.04 L 149.44 147.04 L 151.08 147.04 L 152.71 147.04 L 154.34 147.04 L 155.98 147.04 L 157.61 147.04 L 159.24 147.04 L 160.88 147.04 L 162.51 151.31 L 164.14 146.66 L 165.78 146.39 L 167.41 146.20 L 169.04 146.20 L 170.68 145.44 L 172.31 145.44 L 173.94 145.27 L 175.58 145.23 L 177.21 145.10 L 178.84 144.61 L 180.48 144.48 L 182.11 144.48 L 183.75 144.48 L 185.38 144.48 L 187.01 127.19 L 188.65 144.48 L 190.28 144.48 L 191.91 144.48 L 193.55 144.25 L 195.18 139.83 L 196.81 138.44 L 198.45 138.43 L 200.08 138.12 L 201.71 138.12 L 203.35 138.01 L 204.98 137.76 L 206.61 137.59 L 208.25 137.46 L 209.88 137.43 L 211.51 137.35 L 213.15 137.29 L 214.78 137.18 L 216.41 137.14 L 218.05 136.97 L 219.68 136.88 L 221.31 136.77 L 222.95 136.68 L 224.58 136.46 L 226.22 136.39 L 227.85 136.39 L 229.48 136.38 L 231.12 136.38 L 232.75 136.36 L 234.38 136.35 L 236.02 136.35 L 237.65 136.31 L 239.28 136.31 L 240.92 136.31 L 242.55 136.24 L 244.18 136.03 L 245.82 130.11 L 247.45 130.11 L 249.08 130.03 L 250.72 130.03 L 252.35 129.92 L 253.98 129.92 L 255.62 129.89 L 257.25 129.89 L 258.88 129.77 L 260.52 129.77 L 262.15 129.73 L 263.78 129.72 L 265.42 129.72 L 267.05 129.61 L 268.69 129.61 L 270.32 129.57 L 271.95 129.52 L 273.59 129.49 L 275.22 129.49 L 276.85 129.40 L 278.49 129.40 L 280.12 129.40 L 281.75 128.97 L 283.39 128.97 L 285.02 128.27 L 286.65 128.27 L 288.29 128.27 L 289.92 128.23 L 291.55 128.17 L 293.19 128.17 L 294.82 128.14 L 296.45 128.11 L 298.09 128.11 L 299.72 128.07 L 301.35 127.48 L 302.99 127.48 L 304.62 127.45 L 306.25 127.45 L 307.89 127.44 L 309.52 127.41 L 311.16 127.38 L 312.79 127.38 L 314.42 127.16 L 316.06 127.12 L 317.69 127.12 L 319.32 127.12 L 320.96 127.09 L 322.59 127.06 L 324.22 127.06 L 325.86 127.06 L 327.49 127.06 L 329.12 126.99 L 330.76 126.99 L 332.39 126.99 L 334.02 126.99 L 335.66 126.99 L 337.29 126.91 L 338.92 126.89 L 340.56 126.89 L 342.19 126.84 L 343.82 126.79 L 345.46 126.73 L 347.09 126.64 L 348.73 126.64 L 350.36 126.62 L 351.99 126.45 L 353.63 126.45 L 355.26 126.45 L 356.89 126.35 L 358.53 126.33 L 360.16 126.20 L 361.79 126.20 L 363.43 126.12 L 365.06 126.07 L 366.69 126.06 L 368.33 125.88 L 369.96 125.86 L 371.59 125.86 L 373.23 125.82 L 374.86 125.62 L 376.49 125.62 L 378.13 125.58 L 379.76 125.58 L 381.39 125.52 L 383.03 125.51 L 384.66 125.58 L 386.29 125.24 L 387.93 125.13 L 389.56 125.13 L 391.20 125.13 L 392.83 125.09 L 394.46 124.96 L 396.10 124.94 L 397.73 124.79 L 399.36 124.79 L 401.00 124.68 L 402.63 124.66 L 404.26 124.66 L 405.90 124.38 L 407.53 124.32 L 409.16 124.32 L 410.80 124.17 L 412.43 124.13 L 414.06 124.11 L 415.70 123.73 L 417.33 124.17 L 418.96 123.53 L 420.60 123.53 L 422.23 123.53 L 423.86 123.47 L 425.50 123.38 L 427.13 123.47 L 428.76 123.34 L 430.40 123.30 L 432.03 123.22 L 433.67 123.19 L 435.30 123.19 L 436.93 123.19 L 438.57 123.20 L 440.20 119.86 L 441.83 119.86 L 443.47 119.83 L 445.10 119.79 L 446.73 119.79 L 448.37 119.71 L 450.00 119.67 L 451.63 119.61 L 453.27 119.55 L 454.90 119.48 L 456.53 119.40 L 458.17 119.34 L 459.80 119.34 L 461.43 119.34 L 463.07 119.22 L 464.70 119.10 L 466.33 119.09 L 467.97 119.18 L 469.60 119.17 L 471.24 119.12 L 472.87 119.07 L 474.50 118.97 L 476.14 118.97 L 477.77 118.97 L 479.40 118.93 L 481.04 118.89 L 482.67 118.84 L 484.30 118.84 L 485.94 118.84 L 487.57 118.81 L 489.20 118.81 L 490.84 118.81 L 492.47 118.80 L 494.10 118.63 L 495.74 118.63 L 497.37 118.63 L 499.00 118.60 L 500.64 118.60 L 502.27 118.03 L 503.90 117.99 L 505.54 117.86 L 507.17 117.86 L 508.80 117.79 L 510.44 117.86 L 512.07 117.75 L 513.71 117.75 L 515.34 117.64 L 516.97 117.64 L 518.61 117.56 L 520.24 117.55 L 521.87 117.55 L 523.51 117.55 L 525.14 117.48 L 526.77 117.48 L 528.41 117.47 L 530.04 117.47 L 531.67 117.47 L 533.31 117.41 L 534.94 117.35 L 536.57 117.30 L 538.21 117.29 L 539.84 117.18 L 541.47 117.18 L 543.11 117.18 L 544.74 117.18 L 546.37 116.79 L 548.01 116.78 L 549.64 116.78 L 551.27 116.75 L 552.91 116.75 L 554.54 116.70 L 556.18 116.64 L 557.81 116.62 L 559.44 116.62 L 561.08 116.59 L 562.71 116.59 L 564.34 116.56 L 565.98 116.56 L 567.61 116.53 L 569.24 116.53 L 570.88 116.53 L 572.51 116.50 L 574.14 116.36 L 575.78 116.36 L 577.41 116.36 L 579.04 116.29 L 580.68 116.29 L 582.31 116.29 L 583.94 116.29 L 585.58 116.24 L 587.21 116.24 L 588.84 116.15 L 590.48 116.15 L 592.11 115.69 L 593.75 115.69 L 595.38 115.69 L 597.01 115.60 L 598.65 115.60 L 600.28 115.57 L 601.91 115.57 L 603.55 115.57 L 605.18 115.52 L 606.81 115.52 L 608.45 115.52 L 610.08 115.34 L 611.71 115.34 L 613.35 115.34 L 614.98 115.19 L 616.61 115.14 L 618.25 115.14 L 619.88 115.61 L 621.51 115.55 L 623.15 115.44 L 624.78 115.42 L 626.41 115.42 L 628.05 115.37 L 629.68 115.33 L 631.31 115.27 L 632.95 115.07 L 634.58 115.07 L 636.22 115.07 L 637.85 114.69 L 639.48 114.64 L 641.12 114.64 L 642.75 114.50 L 644.38 114.50 L 646.02 114.31 L 647.65 114.31 L 649.28 114.44 L 650.92 114.43 L 652.55 114.35 L 654.18 114.31 L 655.82 114.11 L 657.45 114.08 L 659.08 114.11 L 660.72 114.01 L 662.35 114.01 L 663.98 113.87 L 665.62 113.87 L 667.25 113.84 L 668.88 113.79 L 670.52 113.79 L 672.15 113.77 L 673.78 113.77 L 675.42 113.69 L 677.05 113.67 L 678.69 113.45 L 680.32 113.45 L 681.95 113.44 L 683.59 113.45 L 685.22 113.30 L 686.85 113.30 L 688.49 112.73 L 690.12 112.73 L 691.75 111.81 L 693.39 111.01 L 695.02 111.01 L 696.65 111.01 L 698.29 110.72 L 699.92 111.04 L 701.55 111.04 L 703.19 111.55 L 704.82 111.55 L 706.45 111.55 L 708.09 111.26 L 709.72 111.06 L 711.35 110.98 L 712.99 110.95 L 714.62 110.91 L 716.25 110.88 L 717.89 110.58 L 719.52 110.58 L 721.16 110.37 L 722.79 110.37 L 724.42 110.21 L 726.06 110.21 L 727.69 109.84 L 729.32 109.84 L 730.96 109.74 L 732.59 109.74 L 734.22 109.51 L 735.86 109.51 L 737.49 109.51 L 739.12 109.37 L 740.76 109.35 L 742.39 109.35 L 744.02 109.35 L 745.66 108.58 L 747.29 108.58 L 748.92 108.59 L 750.56 108.59 L 752.19 108.35 L 753.82 108.35 L 755.46 108.35 L 757.09 108.03 L 758.73 108.03 L 760.36 108.03 L 761.99 106.90 L 763.63 106.90 L 765.26 106.37 L 766.89 106.37 L 768.53 167.00 L 770.16 167.00 L 771.79 167.36 L 773.43 167.59 L 775.06 167.73 L 776.69 167.73 L 778.33 171.86 L 779.96 171.86 L 781.59 171.86 L 783.23 171.76 L 784.86 171.76 L 786.49 171.76 L 788.13 172.20 L 789.76 172.20 L 791.39 173.44 L 793.03 173.44 L 794.66 173.44 L 796.29 177.30 L 797.93 177.30 L 799.56 177.02 L 801.20 180.93 L 802.83 180.93 L 804.46 180.90 L 806.10 180.90 L 807.73 180.71 L 809.36 180.71 L 811.00 185.41 L 812.63 185.41 L 814.26 185.41 L 815.90 185.41 L 817.53 185.41 L 819.16 185.41 L 820.80 177.59 L 822.43 161.56 L 824.06 161.56 L 825.70 161.56 L 827.33 159.17 L 828.96 159.17 L 830.60 159.17 L 832.23 159.15 L 833.86 159.15 L 835.50 158.30 L 837.13 158.30 L 838.76 152.29 L 840.40 152.29 L 842.03 151.36 L 843.67 151.36 L 845.30 152.09 L 846.93 152.09 L 848.57 151.94 L 850.20 151.94 L 851.83 151.89 L 853.47 151.89 L 855.10 151.82 L 856.73 151.82 L 858.37 151.78 L 860.00 151.78" fill="none" stroke="#3fb950" stroke-width="2"/>
    <circle cx="860.00" cy="151.78" r="3" fill="#3fb950"/>
    <text x="40.00" y="235.00" font-size="9" fill="#c9d1d9" text-anchor="middle" transform="rotate(-45 40.00 235.00)">04.09.2024</text><text x="121.67" y="235.00" font-size="9" fill="#c9d1d9" text-anchor="middle" transform="rotate(-45 121.67 235.00)">11.05.2026</text><text x="203.35" y="235.00" font-size="9" fill="#c9d1d9" text-anchor="middle" transform="rotate(-45 203.35 235.00)">27.05.2026</text><text x="285.02" y="235.00" font-size="9" fill="#c9d1d9" text-anchor="middle" transform="rotate(-45 285.02 235.00)">18.06.2026</text><text x="366.69" y="235.00" font-size="9" fill="#c9d1d9" text-anchor="middle" transform="rotate(-45 366.69 235.00)">30.06.2026</text><text x="448.37" y="235.00" font-size="9" fill="#c9d1d9" text-anchor="middle" transform="rotate(-45 448.37 235.00)">12.07.2026</text><text x="530.04" y="235.00" font-size="9" fill="#c9d1d9" text-anchor="middle" transform="rotate(-45 530.04 235.00)">25.07.2026</text><text x="611.71" y="235.00" font-size="9" fill="#c9d1d9" text-anchor="middle" transform="rotate(-45 611.71 235.00)">08.08.2026</text><text x="693.39" y="235.00" font-size="9" fill="#c9d1d9" text-anchor="middle" transform="rotate(-45 693.39 235.00)">23.08.2026</text><text x="775.06" y="235.00" font-size="9" fill="#c9d1d9" text-anchor="middle" transform="rotate(-45 775.06 235.00)">13.09.2026</text><text x="856.73" y="235.00" font-size="9" fill="#c9d1d9" text-anchor="middle" transform="rotate(-45 856.73 235.00)">07.10.2026</text>
  </g>
</svg>