<svg xmlns="http://www.w3.org/2000/svg" width="900" height="290" style="font-family: -apple-system, BlinkMacSystemFont, 'Segoe UI', Helvetica, Arial, sans-serif;">
  <rect width="100%" height="100%" fill="#0d1117"/>
  <g>
    <line x1="40" y1="220.00" x2="860" y2="220.00" stroke="#30363d"/><text x="32" y="224.00" font-size="10" fill="#c9d1d9" text-anchor="end">0</text><line x1="40" y1="175.00" x2="860" y2="175.00" stroke="#30363d"/><text x="32" y="179.00" font-size="10" fill="#c9d1d9" text-anchor="end">25k</text><line x1="40" y1="130.00" x2="860" y2="130.00" stroke="#30363d"/><text x="32" y="134.00" font-size="10" fill="#c9d1d9" text-anchor="end">50k</text><line x1="40" y1="85.00" x2="860" y2="85.00" stroke="#30363d"/><text x="32" y="89.00" font-size="10" fill="#c9d1d9" text-anchor="end">75k</text><line x1="40" y1="40.00" x2="860" y2="40.00" stroke="#30363d"/><text x="32" y="44.00" font-size="10" fill="#c9d1d9" text-anchor="end">100k</text>
    <line x1="40.00" y1="40" x2="40.00" y2="220" stroke="#30363d" opacity="0.5"/><line x1="122.24" y1="40" x2="122.24" y2="220" stroke="#30363d" opacity="0.5"/><line x1="204.48" y1="40" x2="204.48" y2="220" stroke="#30363d" opacity="0.5"/><line x1="286.73" y1="40" x2="286.73" y2="220" stroke="#30363d" opacity="0.5"/><line x1="368.97" y1="40" x2="368.97" y2="220" stroke="#30363d" opacity="0.5"/><line x1="451.21" y1="40" x2="451.21" y2="220" stroke="#30363d" opacity="0.5"/><line x1="533.45" y1="40" x2="533.45" y2="220" stroke="#30363d" opacity="0.5"/><line x1="615.69" y1="40" x2="615.69" y2="220" stroke="#30363d" opacity="0.5"/><line x1="697.94" y1="40" x2="697.94" y2="220" stroke="#30363d" opacity="0.5"/><line x1="780.18" y1="40" x2="780.18" y2="220" stroke="#30363d" opacity="0.5"/>
    <line x1="40" y1="220" x2="860" y2="220" stroke="#30363d"/>
    <line x1="40" y1="40"   x2="40"   y2="220" stroke="#30363d"/>
    <path d="M 40.00 219.82 L 42.42 219.52 L 44.84 219.36 L 47.26 219.31 L 49.68 219.21 L 52.09 219.21 L 54.51 219.21 L 56.93 219.21 L 59.35 219.10 L 61.77 218.97 L 64.19 218.93 L 66.61 218.85 L 69.03 218.82 L 71.45 218.77 L 73.86 218.77 L 76.28 219.05 L 78.70 219.04 L 81.12 219.04 L 83.54 218.98 L 85.96 218.91 L 88.38 218.82 L 90.80 218.79 L 93.22 218.68 L 95.63 218.67 L 98.05 218.60 L 100.47 218.55 L 102.89 218.45 L 105.31 218.42 L 107.73 218.38 L 110.15 218.33 L 112.57 218.24 L 114.99 218.09 L 117.40 217.93 L 119.82 217.69 L 122.24 217.78 L 124.66 217.56 L 127.08 217.40 L 129.50 215.79 L 131.92 215.77 L 134.34 214.66 L 136.76 214.14 L 139.17 213.99 L 141.59 213.92 L 144.01 213.77 L 146.43 213.71 L 148.85 213.57 L 151.27 213.05 L 153.69 212.85 L 156.11 212.71 L 158.53 212.52 L 160.94 212.19 L 163.36 212.03 L 165.78 211.72 L 168.20 211.54 L 170.62 211.47 L 173.04 211.13 L 175.46 210.98 L 177.88 210.94 L 180.29 210.85 L 182.71 210.69 L 185.13 210.62 L 187.55 210.56 L 189.97 210.40 L 192.39 210.34 L 194.81 209.55 L 197.23 209.49 L 199.65 147.04 L 202.06 147.04 L 204.48 147.04 L 206.90 147.04 L 209.32 147.04 L 211.74 147.04 L 214.16 147.04 L 216.58 147.04 L 219.00 147.04 L 221.42 151.31 L 223.83 146.66 L 226.25 146.39 L 228.67 146.20 L 231.09 146.20 L 233.51 145.44 L 235.93 145.44 L 238.35 145.27 L 240.77 145.23 L 243.19 145.10 L 245.60 144.61 L 248.02 144.48 L 250.44 144.48 L 252.86 144.48 L 255.28 144.48 L 257.70 127.19 L 260.12 144.48 L 262.54 144.48 L 264.96 144.48 L 267.37 144.25 L 269.79 139.83 L 272.21 138.44 L 274.63 138.43 L 277.05 138.12 L 279.47 138.12 L 281.89 138.01 L 284.31 137.76 L 286.73 137.59 L 289.14 137.46 L 291.56 137.43 L 293.98 137.35 L 296.40 137.29 L 298.82 137.18 L 301.24 137.14 L 303.66 136.97 L 306.08 136.88 L 308.50 136.77 L 310.91 136.68 L 313.33 136.46 L 315.75 136.39 L 318.17 136.39 L 320.59 136.38 L 323.01 136.38 L 325.43 136.36 L 327.85 136.35 L 330.27 136.35 L 332.68 136.31 L 335.10 136.31 L 337.52 136.31 L 339.94 136.24 L 342.36 136.03 L 344.78 130.11 L 347.20 130.11 L 349.62 130.03 L 352.04 130.03 L 354.45 129.92 L 356.87 129.92 L 359.29 129.89 L 361.71 129.89 L 364.13 129.77 L 366.55 129.77 L 368.97 129.73 L 371.39 129.72 L 373.81 129.72 L 376.22 129.61 L 378.64 129.61 L 381.06 129.57 L 383.48 129.52 L 385.90 129.49 L 388.32 129.49 L 390.74 129.40 L 393.16 129.40 L 395.58 129.40 L 397.99 128.97 L 400.41 128.97 L 402.83 128.27 L 405.25 128.27 L 407.67 128.27 L 410.09 128.23 L 412.51 128.17 L 414.93 128.17 L 417.35 128.14 L 419.76 128.11 L 422.18 128.11 L 424.60 128.07 L 427.02 127.48 L 429.44 127.48 L 431.86 127.45 L 434.28 127.45 L 436.70 127.44 L 439.12 127.41 L 441.53 127.38 L 443.95 127.38 L 446.37 127.16 L 448.79 127.12 L 451.21 127.12 L 453.63 127.12 L 456.05 127.09 L 458.47 127.06 L 460.88 127.06 L 463.30 127.06 L 465.72 127.06 L 468.14 126.99 L 470.56 126.99 L 472.98 126.99 L 475.40 126.99 L 477.82 126.99 L 480.24 126.91 L 482.65 126.89 L 485.07 126.89 L 487.49 126.84 L 489.91 126.79 L 492.33 126.73 L 494.75 126.64 L 497.17 126.64 L 499.59 126.62 L 502.01 126.45 L 504.42 126.45 L 506.84 126.45 L 509.26 126.35 L 511.68 126.33 L 514.10 126.20 L 516.52 126.20 L 518.94 126.12 L 521.36 126.07 L 523.78 126.06 L 526.19 125.88 L 528.61 125.86 L 531.03 125.86 L 533.45 125.82 L 535.87 125.62 L 538.29 125.62 L 540.71 125.58 L 543.13 125.58 L 545.55 125.52 L 547.96 125.51 L 550.38 125.58 L 552.80 125.24 L 555.22 125.13 L 557.64 125.13 L 560.06 125.13 L 562.48 125.09 L 564.90 124.96 L 567.32 124.94 L 569.73 124.79 L 572.15 124.79 L 574.57 124.68 L 576.99 124.66 L 579.41 124.66 L 581.83 124.38 L 584.25 124.32 L 586.67 124.32 L 589.09 124.17 L 591.50 124.13 L 593.92 124.11 L 596.34 123.73 L 598.76 124.17 L 601.18 123.53 L 603.60 123.53 L 606.02 123.53 L 608.44 123.47 L 610.86 123.38 L 613.27 123.47 L 615.69 123.34 L 618.11 123.30 L 620.53 123.22 L 622.95 123.19 L 625.37 123.19 L 627.79 123.19 L 630.21 123.20 L 632.63 119.86 L 635.04 119.86 L 637.46 119.83 L 639.88 119.79 L 642.30 119.79 L 644.72 119.71 L 647.14 119.67 L 649.56 119.61 L 651.98 119.55 L 654.40 119.48 L 656.81 119.40 L 659.23 119.34 L 661.65 119.34 L 664.07 119.34 L 666.49 119.22 L 668.91 119.10 L 671.33 119.09 L 673.75 119.18 L 676.17 119.17 L 678.58 119.12 L 681.00 119.07 L 683.42 118.97 L 685.84 118.97 L 688.26 118.97 L 690.68 118.93 L 693.10 118.89 L 695.52 118.84 L 697.94 118.84 L 700.35 118.84 L 702.77 118.81 L 705.19 118.81 L 707.61 118.81 L 710.03 118.80 L 712.45 118.63 L 714.87 118.63 L 717.29 118.63 L 719.71 118.60 L 722.12 118.60 L 724.54 118.03 L 726.96 117.99 L 729.38 117.86 L 731.80 117.86 L 734.22 117.79 L 736.64 117.86 L 739.06 117.75 L 741.47 117.75 L 743.89 117.64 L 746.31 117.64 L 748.73 117.56 L 751.15 117.55 L 753.57 117.55 L 755.99 117.55 L 758.41 117.48 L 760.83 117.48 L 763.24 117.47 L 765.66 117.47 L 768.08 117.47 L 770.50 117.41 L 772.92 117.35 L 775.34 117.30 L 777.76 117.29 L 780.18 117.18 L 782.60 117.18 L 785.01 117.18 L 787.43 117.18 L 789.85 116.79 L 792.27 116.78 L 794.69 116.78 L 797.11 116.75 L 799.53 116.75 L 801.95 116.70 L 804.37 116.64 L 806.78 116.62 L 809.20 116.62 L 811.62 116.59 L 814.04 116.59 L 816.46 116.56 L 818.88 116.56 L 821.30 116.53 L 823.72 116.53 L 826.14 116.53 L 828.55 116.50 L 830.97 116.36 L 833.39 116.36 L 835.81 116.36 L 838.23 116.29 L 840.65 116.29 L 843.07 116.29 L 845.49 116.29 L 847.91 116.24 L 850.32 116.24 L 852.74 116.15 L 855.16 116.15 L 857.58 115.69 L 860.00 115.69" fill="none" stroke="#3fb950" stroke-width="2"/>
    <circle cx="860.00" cy="115.69" r="3" fill="#3fb950"/>
    <text x="40.00" y="235.00" font-size="9" fill="#c9d1d9" text-anchor="middle" transform="rotate(-45 40.00 235.00)">04.09.2024</text><text x="122.24" y="235.00" font-size="9" fill="#c9d1d9" text-anchor="middle" transform="rotate(-45 122.24 235.00)">26.11.2024</text><text x="204.48" y="235.00" font-size="9" fill="#c9d1d9" text-anchor="middle" transform="rotate(-45 204.48 235.00)">20.05.2026</text><text x="286.73" y="235.00" font-size="9" fill="#c9d1d9" text-anchor="middle" transform="rotate(-45 286.73 235.00)">28.05.2026</text><text x="368.97" y="235.00" font-size="9" fill="#c9d1d9" text-anchor="middle" transform="rotate(-45 368.97 235.00)">15.06.2026</text><text x="451.21" y="235.00" font-size="9" fill="#c9d1d9" text-anchor="middle" transform="rotate(-45 451.21 235.00)">23.06.2026</text><text x="533.45" y="235.00" font-size="9" fill="#c9d1d9" text-anchor="middle" transform="rotate(-45 533.45 235.00)">01.07.2026</text><text x="615.69" y="235.00" font-size="9" fill="#c9d1d9" text-anchor="middle" transform="rotate(-45 615.69 235.00)">08.07.2026</text><text x="697.94" y="235.00" font-size="9" fill="#c9d1d9" text-anchor="middle" transform="rotate(-45 697.94 235.00)">16.07.2026</text><text x="780.18" y="235.00" font-size="9" fill="#c9d1d9" text-anchor="middle" transform="rotate(-45 780.18 235.00)">26.07.2026</text>
  </g>
</svg>