<svg xmlns="http://www.w3.org/2000/svg" width="900" height="290" style="font-family: -apple-system, BlinkMacSystemFont, 'Segoe UI', Helvetica, Arial, sans-serif;">
  <rect width="100%" height="100%" fill="white"/>
  <g>
    <line x1="40" y1="220.00" x2="860" y2="220.00" stroke="#e5e7eb"/><text x="32" y="224.00" font-size="10" fill="#111827" text-anchor="end">0</text><line x1="40" y1="175.00" x2="860" y2="175.00" stroke="#e5e7eb"/><text x="32" y="179.00" font-size="10" fill="#111827" text-anchor="end">25k</text><line x1="40" y1="130.00" x2="860" y2="130.00" stroke="#e5e7eb"/><text x="32" y="134.00" font-size="10" fill="#111827" text-anchor="end">50k</text><line x1="40" y1="85.00" x2="860" y2="85.00" stroke="#e5e7eb"/><text x="32" y="89.00" font-size="10" fill="#111827" text-anchor="end">75k</text><line x1="40" y1="40.00" x2="860" y2="40.00" stroke="#e5e7eb"/><text x="32" y="44.00" font-size="10" fill="#111827" text-anchor="end">100k</text>
    <line x1="40.00" y1="40" x2="40.00" y2="220" stroke="#e5e7eb" opacity="0.5"/><line x1="121.80" y1="40" x2="121.80" y2="220" stroke="#e5e7eb" opacity="0.5"/><line x1="203.59" y1="40" x2="203.59" y2="220" stroke="#e5e7eb" opacity="0.5"/><line x1="285.39" y1="40" x2="285.39" y2="220" stroke="#e5e7eb" opacity="0.5"/><line x1="367.18" y1="40" x2="367.18" y2="220" stroke="#e5e7eb" opacity="0.5"/><line x1="448.98" y1="40" x2="448.98" y2="220" stroke="#e5e7eb" opacity="0.5"/><line x1="530.77" y1="40" x2="530.77" y2="220" stroke="#e5e7eb" opacity="0.5"/><line x1="612.57" y1="40" x2="612.57" y2="220" stroke="#e5e7eb" opacity="0.5"/><line x1="694.36" y1="40" x2="694.36" y2="220" stroke="#e5e7eb" opacity="0.5"/><line x1="776.16" y1="40" x2="776.16" y2="220" stroke="#e5e7eb" opacity="0.5"/><line x1="857.96" y1="40" x2="857.96" y2="220" stroke="#e5e7eb" opacity="0.5"/>
    <line x1="40" y1="220" x2="860" y2="220" stroke="#9ca3af"/>
    <line x1="40" y1="40"   x2="40"   y2="220" stroke="#9ca3af"/>
    <path d="M 40.00 219.82 L 42.04 219.52 L 44.09 219.36 L 46.13 219.31 L 48.18 219.21 L 50.22 219.21 L 52.27 219.21 L 54.31 219.21 L 56.36 219.10 L 58.40 218.97 L 60.45 218.93 L 62.49 218.85 L 64.54 218.82 L 66.58 218.77 L 68.63 218.77 L 70.67 219.05 L 72.72 219.04 L 74.76 219.04 L 76.81 218.98 L 78.85 218.91 L 80.90 218.82 L 82.94 218.79 L 84.99 218.68 L 87.03 218.67 L 89.08 218.60 L 91.12 218.55 L 93.17 218.45 L 95.21 218.42 L 97.26 218.38 L 99.30 218.33 L 101.35 218.24 L 103.39 218.09 L 105.44 217.93 L 107.48 217.69 L 109.53 217.78 L 111.57 217.56 L 113.62 217.40 L 115.66 215.79 L 117.71 215.77 L 119.75 214.66 L 121.80 214.14 L 123.84 213.99 L 125.89 213.92 L 127.93 213.77 L 129.98 213.71 L 132.02 213.57 L 134.06 213.05 L 136.11 212.85 L 138.15 212.71 L 140.20 212.52 L 142.24 212.19 L 144.29 212.03 L 146.33 211.72 L 148.38 211.54 L 150.42 211.47 L 152.47 211.13 L 154.51 210.98 L 156.56 210.94 L 158.60 210.85 L 160.65 210.69 L 162.69 210.62 L 164.74 210.56 L 166.78 210.40 L 168.83 210.34 L 170.87 209.55 L 172.92 209.49 L 174.96 147.04 L 177.01 147.04 L 179.05 147.04 L 181.10 147.04 L 183.14 147.04 L 185.19 147.04 L 187.23 147.04 L 189.28 147.04 L 191.32 147.04 L 193.37 151.31 L 195.41 146.66 L 197.46 146.39 L 199.50 146.20 L 201.55 146.20 L 203.59 145.44 L 205.64 145.44 L 207.68 145.27 L 209.73 145.23 L 211.77 145.10 L 213.82 144.61 L 215.86 144.48 L 217.91 144.48 L 219.95 144.48 L 222.00 144.48 L 224.04 127.19 L 226.08 144.48 L 228.13 144.48 L 230.17 144.48 L 232.22 144.25 L 234.26 139.83 L 236.31 138.44 L 238.35 138.43 L 240.40 138.12 L 242.44 138.12 L 244.49 138.01 L 246.53 137.76 L 248.58 137.59 L 250.62 137.46 L 252.67 137.43 L 254.71 137.35 L 256.76 137.29 L 258.80 137.18 L 260.85 137.14 L 262.89 136.97 L 264.94 136.88 L 266.98 136.77 L 269.03 136.68 L 271.07 136.46 L 273.12 136.39 L 275.16 136.39 L 277.21 136.38 L 279.25 136.38 L 281.30 136.36 L 283.34 136.35 L 285.39 136.35 L 287.43 136.31 L 289.48 136.31 L 291.52 136.31 L 293.57 136.24 L 295.61 136.03 L 297.66 130.11 L 299.70 130.11 L 301.75 130.03 L 303.79 130.03 L 305.84 129.92 L 307.88 129.92 L 309.93 129.89 L 311.97 129.89 L 314.01 129.77 L 316.06 129.77 L 318.10 129.73 L 320.15 129.72 L 322.19 129.72 L 324.24 129.61 L 326.28 129.61 L 328.33 129.57 L 330.37 129.52 L 332.42 129.49 L 334.46 129.49 L 336.51 129.40 L 338.55 129.40 L 340.60 129.40 L 342.64 128.97 L 344.69 128.97 L 346.73 128.27 L 348.78 128.27 L 350.82 128.27 L 352.87 128.23 L 354.91 128.17 L 356.96 128.17 L 359.00 128.14 L 361.05 128.11 L 363.09 128.11 L 365.14 128.07 L 367.18 127.48 L 369.23 127.48 L 371.27 127.45 L 373.32 127.45 L 375.36 127.44 L 377.41 127.41 L 379.45 127.38 L 381.50 127.38 L 383.54 127.16 L 385.59 127.12 L 387.63 127.12 L 389.68 127.12 L 391.72 127.09 L 393.77 127.06 L 395.81 127.06 L 397.86 127.06 L 399.90 127.06 L 401.95 126.99 L 403.99 126.99 L 406.03 126.99 L 408.08 126.99 L 410.12 126.99 L 412.17 126.91 L 414.21 126.89 L 416.26 126.89 L 418.30 126.84 L 420.35 126.79 L 422.39 126.73 L 424.44 126.64 L 426.48 126.64 L 428.53 126.62 L 430.57 126.45 L 432.62 126.45 L 434.66 126.45 L 436.71 126.35 L 438.75 126.33 L 440.80 126.20 L 442.84 126.20 L 444.89 126.12 L 446.93 126.07 L 448.98 126.06 L 451.02 125.88 L 453.07 125.86 L 455.11 125.86 L 457.16 125.82 L 459.20 125.62 L 461.25 125.62 L 463.29 125.58 L 465.34 125.58 L 467.38 125.52 L 469.43 125.51 L 471.47 125.58 L 473.52 125.24 L 475.56 125.13 L 477.61 125.13 L 479.65 125.13 L 481.70 125.09 L 483.74 124.96 L 485.79 124.94 L 487.83 124.79 L 489.88 124.79 L 491.92 124.68 L 493.97 124.66 L 496.01 124.66 L 498.05 124.38 L 500.10 124.32 L 502.14 124.32 L 504.19 124.17 L 506.23 124.13 L 508.28 124.11 L 510.32 123.73 L 512.37 124.17 L 514.41 123.53 L 516.46 123.53 L 518.50 123.53 L 520.55 123.47 L 522.59 123.38 L 524.64 123.47 L 526.68 123.34 L 528.73 123.30 L 530.77 123.22 L 532.82 123.19 L 534.86 123.19 L 536.91 123.19 L 538.95 123.20 L 541.00 119.86 L 543.04 119.86 L 545.09 119.83 L 547.13 119.79 L 549.18 119.79 L 551.22 119.71 L 553.27 119.67 L 555.31 119.61 L 557.36 119.55 L 559.40 119.48 L 561.45 119.40 L 563.49 119.34 L 565.54 119.34 L 567.58 119.34 L 569.63 119.22 L 571.67 119.10 L 573.72 119.09 L 575.76 119.18 L 577.81 119.17 L 579.85 119.12 L 581.90 119.07 L 583.94 118.97 L 585.99 118.97 L 588.03 118.97 L 590.07 118.93 L 592.12 118.89 L 594.16 118.84 L 596.21 118.84 L 598.25 118.84 L 600.30 118.81 L 602.34 118.81 L 604.39 118.81 L 606.43 118.80 L 608.48 118.63 L 610.52 118.63 L 612.57 118.63 L 614.61 118.60 L 616.66 118.60 L 618.70 118.03 L 620.75 117.99 L 622.79 117.86 L 624.84 117.86 L 626.88 117.79 L 628.93 117.86 L 630.97 117.75 L 633.02 117.75 L 635.06 117.64 L 637.11 117.64 L 639.15 117.56 L 641.20 117.55 L 643.24 117.55 L 645.29 117.55 L 647.33 117.48 L 649.38 117.48 L 651.42 117.47 L 653.47 117.47 L 655.51 117.47 L 657.56 117.41 L 659.60 117.35 L 661.65 117.30 L 663.69 117.29 L 665.74 117.18 L 667.78 117.18 L 669.83 117.18 L 671.87 117.18 L 673.92 116.79 L 675.96 116.78 L 678.00 116.78 L 680.05 116.75 L 682.09 116.75 L 684.14 116.70 L 686.18 116.64 L 688.23 116.62 L 690.27 116.62 L 692.32 116.59 L 694.36 116.59 L 696.41 116.56 L 698.45 116.56 L 700.50 116.53 L 702.54 116.53 L 704.59 116.53 L 706.63 116.50 L 708.68 116.36 L 710.72 116.36 L 712.77 116.36 L 714.81 116.29 L 716.86 116.29 L 718.90 116.29 L 720.95 116.29 L 722.99 116.24 L 725.04 116.24 L 727.08 116.15 L 729.13 116.15 L 731.17 115.69 L 733.22 115.69 L 735.26 115.69 L 737.31 115.60 L 739.35 115.60 L 741.40 115.57 L 743.44 115.57 L 745.49 115.57 L 747.53 115.52 L 749.58 115.52 L 751.62 115.52 L 753.67 115.34 L 755.71 115.34 L 757.76 115.34 L 759.80 115.19 L 761.85 115.14 L 763.89 115.14 L 765.94 115.61 L 767.98 115.55 L 770.02 115.44 L 772.07 115.42 L 774.11 115.42 L 776.16 115.37 L 778.20 115.33 L 780.25 115.27 L 782.29 115.07 L 784.34 115.07 L 786.38 115.07 L 788.43 114.69 L 790.47 114.64 L 792.52 114.64 L 794.56 114.50 L 796.61 114.50 L 798.65 114.31 L 800.70 114.31 L 802.74 114.44 L 804.79 114.43 L 806.83 114.35 L 808.88 114.31 L 810.92 114.11 L 812.97 114.08 L 815.01 114.11 L 817.06 114.01 L 819.10 114.01 L 821.15 113.87 L 823.19 113.87 L 825.24 113.84 L 827.28 113.79 L 829.33 113.79 L 831.37 113.77 L 833.42 113.77 L 835.46 113.69 L 837.51 113.67 L 839.55 113.45 L 841.60 113.45 L 843.64 113.44 L 845.69 113.45 L 847.73 113.30 L 849.78 113.30 L 851.82 112.73 L 853.87 112.73 L 855.91 111.81 L 857.96 111.01 L 860.00 111.01" fill="none" stroke="#111827" stroke-width="2"/>
    <circle cx="860.00" cy="111.01" r="3" fill="#111827"/>
    <text x="40.00" y="235.00" font-size="9" fill="#111827" text-anchor="middle" transform="rotate(-45 40.00 235.00)">04.09.2024</text><text x="121.80" y="235.00" font-size="9" fill="#111827" text-anchor="middle" transform="rotate(-45 121.80 235.00)">30.04.2026</text><text x="203.59" y="235.00" font-size="9" fill="#111827" text-anchor="middle" transform="rotate(-45 203.59 235.00)">21.05.2026</text><text x="285.39" y="235.00" font-size="9" fill="#111827" text-anchor="middle" transform="rotate(-45 285.39 235.00)">10.06.2026</text><text x="367.18" y="235.00" font-size="9" fill="#111827" text-anchor="middle" transform="rotate(-45 367.18 235.00)">22.06.2026</text><text x="448.98" y="235.00" font-size="9" fill="#111827" text-anchor="middle" transform="rotate(-45 448.98 235.00)">30.06.2026</text><text x="530.77" y="235.00" font-size="9" fill="#111827" text-anchor="middle" transform="rotate(-45 530.77 235.00)">08.07.2026</text><text x="612.57" y="235.00" font-size="9" fill="#111827" text-anchor="middle" transform="rotate(-45 612.57 235.00)">18.07.2026</text><text x="694.36" y="235.00" font-size="9" fill="#111827" text-anchor="middle" transform="rotate(-45 694.36 235.00)">30.07.2026</text><text x="776.16" y="235.00" font-size="9" fill="#111827" text-anchor="middle" transform="rotate(-45 776.16 235.00)">14.08.2026</text><text x="857.96" y="235.00" font-size="9" fill="#111827" text-anchor="middle" transform="rotate(-45 857.96 235.00)">23.08.2026</text>
  </g>
</svg>