<svg xmlns="http://www.w3.org/2000/svg" width="900" height="290" style="font-family: -apple-system, BlinkMacSystemFont, 'Segoe UI', Helvetica, Arial, sans-serif;">
  <rect width="100%" height="100%" fill="white"/>
  <g>
    <line x1="40" y1="220.00" x2="860" y2="220.00" stroke="#e5e7eb"/><text x="32" y="224.00" font-size="10" fill="#111827" text-anchor="end">0</text><line x1="40" y1="175.00" x2="860" y2="175.00" stroke="#e5e7eb"/><text x="32" y="179.00" font-size="10" fill="#111827" text-anchor="end">25k</text><line x1="40" y1="130.00" x2="860" y2="130.00" stroke="#e5e7eb"/><text x="32" y="134.00" font-size="10" fill="#111827" text-anchor="end">50k</text><line x1="40" y1="85.00" x2="860" y2="85.00" stroke="#e5e7eb"/><text x="32" y="89.00" font-size="10" fill="#111827" text-anchor="end">75k</text><line x1="40" y1="40.00" x2="860" y2="40.00" stroke="#e5e7eb"/><text x="32" y="44.00" font-size="10" fill="#111827" text-anchor="end">100k</text>
    <line x1="40.00" y1="40" x2="40.00" y2="220" stroke="#e5e7eb" opacity="0.5"/><line x1="121.72" y1="40" x2="121.72" y2="220" stroke="#e5e7eb" opacity="0.5"/><line x1="203.44" y1="40" x2="203.44" y2="220" stroke="#e5e7eb" opacity="0.5"/><line x1="285.15" y1="40" x2="285.15" y2="220" stroke="#e5e7eb" opacity="0.5"/><line x1="366.87" y1="40" x2="366.87" y2="220" stroke="#e5e7eb" opacity="0.5"/><line x1="448.59" y1="40" x2="448.59" y2="220" stroke="#e5e7eb" opacity="0.5"/><line x1="530.31" y1="40" x2="530.31" y2="220" stroke="#e5e7eb" opacity="0.5"/><line x1="612.03" y1="40" x2="612.03" y2="220" stroke="#e5e7eb" opacity="0.5"/><line x1="693.75" y1="40" x2="693.75" y2="220" stroke="#e5e7eb" opacity="0.5"/><line x1="775.46" y1="40" x2="775.46" y2="220" stroke="#e5e7eb" opacity="0.5"/><line x1="857.18" y1="40" x2="857.18" y2="220" stroke="#e5e7eb" opacity="0.5"/>
    <line x1="40" y1="220" x2="860" y2="220" stroke="#9ca3af"/>
    <line x1="40" y1="40"   x2="40"   y2="220" stroke="#9ca3af"/>
    <path d="M 40.00 219.82 L 42.82 219.52 L 45.64 219.36 L 48.45 219.31 L 51.27 219.21 L 54.09 219.21 L 56.91 219.21 L 59.73 219.21 L 62.54 219.10 L 65.36 218.97 L 68.18 218.93 L 71.00 218.85 L 73.81 218.82 L 76.63 218.77 L 79.45 218.77 L 82.27 219.05 L 85.09 219.04 L 87.90 219.04 L 90.72 218.98 L 93.54 218.91 L 96.36 218.82 L 99.18 218.79 L 101.99 218.68 L 104.81 218.67 L 107.63 218.60 L 110.45 218.55 L 113.26 218.45 L 116.08 218.42 L 118.90 218.38 L 121.72 218.33 L 124.54 218.24 L 127.35 218.09 L 130.17 217.93 L 132.99 217.69 L 135.81 217.78 L 138.63 217.56 L 141.44 217.40 L 144.26 215.79 L 147.08 215.77 L 149.90 214.66 L 152.71 214.14 L 155.53 213.99 L 158.35 213.92 L 161.17 213.77 L 163.99 213.71 L 166.80 213.57 L 169.62 213.05 L 172.44 212.85 L 175.26 212.71 L 178.08 212.52 L 180.89 212.19 L 183.71 212.03 L 186.53 211.72 L 189.35 211.54 L 192.16 211.47 L 194.98 211.13 L 197.80 210.98 L 200.62 210.94 L 203.44 210.85 L 206.25 210.69 L 209.07 210.62 L 211.89 210.56 L 214.71 210.40 L 217.53 210.34 L 220.34 209.55 L 223.16 209.49 L 225.98 147.04 L 228.80 147.04 L 231.62 147.04 L 234.43 147.04 L 237.25 147.04 L 240.07 147.04 L 242.89 147.04 L 245.70 147.04 L 248.52 147.04 L 251.34 151.31 L 254.16 146.66 L 256.98 146.39 L 259.79 146.20 L 262.61 146.20 L 265.43 145.44 L 268.25 145.44 L 271.07 145.27 L 273.88 145.23 L 276.70 145.10 L 279.52 144.61 L 282.34 144.48 L 285.15 144.48 L 287.97 144.48 L 290.79 144.48 L 293.61 127.19 L 296.43 144.48 L 299.24 144.48 L 302.06 144.48 L 304.88 144.25 L 307.70 139.83 L 310.52 138.44 L 313.33 138.43 L 316.15 138.12 L 318.97 138.12 L 321.79 138.01 L 324.60 137.76 L 327.42 137.59 L 330.24 137.46 L 333.06 137.43 L 335.88 137.35 L 338.69 137.29 L 341.51 137.18 L 344.33 137.14 L 347.15 136.97 L 349.97 136.88 L 352.78 136.77 L 355.60 136.68 L 358.42 136.46 L 361.24 136.39 L 364.05 136.39 L 366.87 136.38 L 369.69 136.38 L 372.51 136.36 L 375.33 136.35 L 378.14 136.35 L 380.96 136.31 L 383.78 136.31 L 386.60 136.31 L 389.42 136.24 L 392.23 136.03 L 395.05 130.11 L 397.87 130.11 L 400.69 130.03 L 403.51 130.03 L 406.32 129.92 L 409.14 129.92 L 411.96 129.89 L 414.78 129.89 L 417.59 129.77 L 420.41 129.77 L 423.23 129.73 L 426.05 129.72 L 428.87 129.72 L 431.68 129.61 L 434.50 129.61 L 437.32 129.57 L 440.14 129.52 L 442.96 129.49 L 445.77 129.49 L 448.59 129.40 L 451.41 129.40 L 454.23 129.40 L 457.04 128.97 L 459.86 128.97 L 462.68 128.27 L 465.50 128.27 L 468.32 128.27 L 471.13 128.23 L 473.95 128.17 L 476.77 128.17 L 479.59 128.14 L 482.41 128.11 L 485.22 128.11 L 488.04 128.07 L 490.86 127.48 L 493.68 127.48 L 496.49 127.45 L 499.31 127.45 L 502.13 127.44 L 504.95 127.41 L 507.77 127.38 L 510.58 127.38 L 513.40 127.16 L 516.22 127.12 L 519.04 127.12 L 521.86 127.12 L 524.67 127.09 L 527.49 127.06 L 530.31 127.06 L 533.13 127.06 L 535.95 127.06 L 538.76 126.99 L 541.58 126.99 L 544.40 126.99 L 547.22 126.99 L 550.03 126.99 L 552.85 126.91 L 555.67 126.89 L 558.49 126.89 L 561.31 126.84 L 564.12 126.79 L 566.94 126.73 L 569.76 126.64 L 572.58 126.64 L 575.40 126.62 L 578.21 126.45 L 581.03 126.45 L 583.85 126.45 L 586.67 126.35 L 589.48 126.33 L 592.30 126.20 L 595.12 126.20 L 597.94 126.12 L 600.76 126.07 L 603.57 126.06 L 606.39 125.88 L 609.21 125.86 L 612.03 125.86 L 614.85 125.82 L 617.66 125.62 L 620.48 125.62 L 623.30 125.58 L 626.12 125.58 L 628.93 125.52 L 631.75 125.51 L 634.57 125.58 L 637.39 125.24 L 640.21 125.13 L 643.02 125.13 L 645.84 125.13 L 648.66 125.09 L 651.48 124.96 L 654.30 124.94 L 657.11 124.79 L 659.93 124.79 L 662.75 124.68 L 665.57 124.66 L 668.38 124.66 L 671.20 124.38 L 674.02 124.32 L 676.84 124.32 L 679.66 124.17 L 682.47 124.13 L 685.29 124.11 L 688.11 123.73 L 690.93 124.17 L 693.75 123.53 L 696.56 123.53 L 699.38 123.53 L 702.20 123.47 L 705.02 123.38 L 707.84 123.47 L 710.65 123.34 L 713.47 123.30 L 716.29 123.22 L 719.11 123.19 L 721.92 123.19 L 724.74 123.19 L 727.56 123.20 L 730.38 119.86 L 733.20 119.86 L 736.01 119.83 L 738.83 119.79 L 741.65 119.79 L 744.47 119.71 L 747.29 119.67 L 750.10 119.61 L 752.92 119.55 L 755.74 119.48 L 758.56 119.40 L 761.37 119.34 L 764.19 119.34 L 767.01 119.34 L 769.83 119.22 L 772.65 119.10 L 775.46 119.09 L 778.28 119.18 L 781.10 119.17 L 783.92 119.12 L 786.74 119.07 L 789.55 118.97 L 792.37 118.97 L 795.19 118.97 L 798.01 118.93 L 800.82 118.89 L 803.64 118.84 L 806.46 118.84 L 809.28 118.84 L 812.10 118.81 L 814.91 118.81 L 817.73 118.81 L 820.55 118.80 L 823.37 118.63 L 826.19 118.63 L 829.00 118.63 L 831.82 118.60 L 834.64 118.60 L 837.46 118.03 L 840.27 117.99 L 843.09 117.86 L 845.91 117.86 L 848.73 117.79 L 851.55 117.86 L 854.36 117.75 L 857.18 117.75 L 860.00 117.64" fill="none" stroke="#111827" stroke-width="2"/>
    <circle cx="860.00" cy="117.64" r="3" fill="#111827"/>
    <text x="40.00" y="235.00" font-size="9" fill="#111827" text-anchor="middle" transform="rotate(-45 40.00 235.00)">04.09.2024</text><text x="121.72" y="235.00" font-size="9" fill="#111827" text-anchor="middle" transform="rotate(-45 121.72 235.00)">28.09.2024</text><text x="203.44" y="235.00" font-size="9" fill="#111827" text-anchor="middle" transform="rotate(-45 203.44 235.00)">16.05.2026</text><text x="285.15" y="235.00" font-size="9" fill="#111827" text-anchor="middle" transform="rotate(-45 285.15 235.00)">24.05.2026</text><text x="366.87" y="235.00" font-size="9" fill="#111827" text-anchor="middle" transform="rotate(-45 366.87 235.00)">08.06.2026</text><text x="448.59" y="235.00" font-size="9" fill="#111827" text-anchor="middle" transform="rotate(-45 448.59 235.00)">17.06.2026</text><text x="530.31" y="235.00" font-size="9" fill="#111827" text-anchor="middle" transform="rotate(-45 530.31 235.00)">26.06.2026</text><text x="612.03" y="235.00" font-size="9" fill="#111827" text-anchor="middle" transform="rotate(-45 612.03 235.00)">01.07.2026</text><text x="693.75" y="235.00" font-size="9" fill="#111827" text-anchor="middle" transform="rotate(-45 693.75 235.00)">05.07.2026</text><text x="775.46" y="235.00" font-size="9" fill="#111827" text-anchor="middle" transform="rotate(-45 775.46 235.00)">14.07.2026</text><text x="857.18" y="235.00" font-size="9" fill="#111827" text-anchor="middle" transform="rotate(-45 857.18 235.00)">21.07.2026</text>
  </g>
</svg>